<svg width="100" height="100" viewBox="0 0 164 78" fill="none" xmlns="http://www.w3.org/2000/svg">
    <path fill-rule="evenodd" clip-rule="evenodd"
        d="M59 0H0V59C0 67.8366 7.16344 75 16 75H75V16C75 7.16344 67.8366 0 59 0ZM53 10H10V53C10 59.6274 15.3726 65 22 65H65V22C65 15.3726 59.6274 10 53 10Z"
        fill="#ADEBD5" />
    <path
        d="M96.98 73.14V75H82.67V53.7H96.71V55.56H84.77V63.24H95.18V65.01H84.77V73.14H96.98ZM99.2113 73.35L113.701 55.56H99.4513V53.7H116.131V55.35L101.821 73.14H116.101V75H99.2113V73.35ZM119.728 53.7L127.348 72.39L134.938 53.7H137.128L128.308 75H126.388L117.538 53.7H119.728ZM140.18 75V53.7H142.28V75H140.18ZM145.881 73.35L160.371 55.56H146.121V53.7H162.801V55.35L148.491 73.14H162.771V75H145.881V73.35Z"
        fill="#32443E" />
</svg>